<?xml version="1.0" encoding="utf-8"?>
<!-- Generator: Adobe Illustrator 18.1.1, SVG Export Plug-In . SVG Version: 6.00 Build 0)  -->
<!DOCTYPE svg PUBLIC "-//W3C//DTD SVG 1.1//EN" "http://www.w3.org/Graphics/SVG/1.1/DTD/svg11.dtd">
<svg version="1.1" id="Layer_1" xmlns="http://www.w3.org/2000/svg" xmlns:xlink="http://www.w3.org/1999/xlink" x="0px" y="0px"
	 viewBox="41.8 79.5 451.3 84.6" enable-background="new 41.8 79.5 451.3 84.6" xml:space="preserve">
<g>
	<path fill="#35495E" d="M153.3,130.5c1.1-2.7,2.6-5.2,4.5-7.4c-4-3.3-9.2-5.4-14.9-5.4c-5.5,0-10.6,1.9-14.5,5.1v-5.1h-8.7v46.5
		h8.7v-23.3c0-8,6.5-14.5,14.5-14.5c4,0,7.7,1.6,10.3,4.3L153.3,130.5z"/>
</g>
<g>
	<path fill="#35495E" d="M244.3,124.3c-9.1-9.1-23.8-9.1-32.9,0c-9.1,9.1-9.1,23.8,0,32.9c9.1,9.1,23.8,9.1,32.9,0
		c4.6-4.5,6.8-10.5,6.8-16.4h-8.7c0,3.7-1.4,7.4-4.3,10.3c-5,5-12.6,5.6-18.3,1.8l26.5-26.5L244.3,124.3z M217.5,130.5
		c4.2-4.2,10.4-5.3,15.6-3.2l-18.8,18.8C212.3,140.9,213.3,134.7,217.5,130.5z"/>
</g>
<g>
	<path fill="#35495E" d="M448.8,79.6L448.8,79.6c4.8,0,8.7,3.9,8.7,8.7v75.8h-8.7V79.6z"/>
</g>
<g>
	<path fill="#35495E" d="M278.5,117.5c-5.5,0-10.6,1.9-14.5,5.1v-5.1h-8.7V164h8.7v-23.3c0-8,6.5-14.5,14.5-14.5
		c8,0,14.5,6.5,14.5,14.5V164h8.7v-23.3C301.8,128,291.4,117.5,278.5,117.5z"/>
</g>
<g>
	<path fill="#35495E" d="M329.8,117.5c-5.5,0-10.6,1.9-14.5,5.1V88.3c0-4.8-3.9-8.7-8.7-8.7l0,0V164h8.7V159
		c4.2,3.4,9.6,5.3,15.5,5.1c12.5-0.5,22.4-10.9,22.3-23.4C353,127.9,342.6,117.5,329.8,117.5z M329.8,155.4c-8,0-14.5-6.5-14.5-14.5
		c0-8,6.5-14.5,14.5-14.5s14.5,6.5,14.5,14.5C344.3,148.9,337.9,155.4,329.8,155.4z"/>
</g>
<g>
	<path fill="#35495E" d="M429.6,155.4c-8,0-14.5-6.5-14.5-14.5c0-8,6.5-14.5,14.5-14.5c4,0,7.7,1.6,10.3,4.3l6.2-6.2
		c-4.2-4.2-10-6.8-16.4-6.8c-12.9,0-23.3,10.4-23.3,23.3s10.4,23.3,23.3,23.3c6.4,0,12.2-2.6,16.4-6.8l-6.2-6.2
		C437.2,153.8,433.5,155.4,429.6,155.4z"/>
</g>
<g>
	<polygon fill="#35495E" points="493.1,117.6 480.7,117.6 457.5,140.9 457.5,140.9 457.5,140.9 457.5,140.9 457.5,140.9 
		480.7,164.1 493.1,164.1 469.8,140.9 	"/>
</g>
<g>
	<g>
		<path fill="#35495E" d="M195.5,124.5c-9.1-9.1-23.8-9.1-32.9,0s-9.1,23.8,0,32.9c9.1,9.1,23.8,9.1,32.9,0
			c4.6-4.5,6.8-10.5,6.8-16.4h-8.7c0,3.7-1.4,7.4-4.3,10.3c-5,5-12.6,5.6-18.3,1.8l26.5-26.5L195.5,124.5z M168.8,130.7
			c4.2-4.2,10.4-5.3,15.6-3.2l-18.8,18.8C163.5,141,164.5,134.9,168.8,130.7z"/>
	</g>
</g>
<g>
	<path fill="#35495E" d="M397.1,125.4L397.1,125.4c-1.6-1.8-3.5-3.3-5.5-4.6c0,0,0,0,0,0c-0.3-0.2-0.7-0.4-1-0.6c0,0-0.1,0-0.2-0.1
		c-0.3-0.1-0.6-0.3-0.9-0.4c-0.1,0-0.2-0.1-0.3-0.1c-0.2-0.1-0.5-0.2-0.8-0.4c-0.1,0-0.2-0.1-0.4-0.1c-0.2-0.1-0.5-0.2-0.8-0.3
		c-0.1,0-0.2-0.1-0.4-0.1c-0.2-0.1-0.5-0.1-0.8-0.2c-0.1,0-0.3-0.1-0.4-0.1c-0.2,0-0.5-0.1-0.8-0.2c-0.1,0-0.3,0-0.5-0.1
		c-0.2,0-0.5-0.1-0.8-0.1c-0.1,0-0.3,0-0.5-0.1c-0.2,0-0.5,0-0.8-0.1c-0.1,0-0.3,0-0.5,0c-0.3,0-0.6,0-0.8,0c-0.1,0-0.2,0-0.4,0
		c-0.4,0-0.8,0-1.3,0c-0.4,0-0.8,0-1.2,0c-4,0.2-7.7,1.4-10.9,3.3c-0.3,0.2-0.7,0.4-0.9,0.6c-2.2,1.5-4.1,3.3-5.6,5.4
		c-0.2,0.3-0.5,0.6-0.7,0.9c-0.4,0.6-0.8,1.3-1.2,1.9c-0.2,0.3-0.4,0.7-0.5,1c-0.7,1.4-1.2,2.8-1.6,4.3c-0.5,1.9-0.8,3.8-0.8,5.8
		c0,0.8,0,1.6,0.1,2.4c0,0.8,0.2,1.6,0.4,2.3c0.4,1.9,1,3.7,1.8,5.4c0.1,0.3,0.3,0.7,0.5,1c3.8,6.9,10.9,11.7,19.3,12.1
		c0.4,0,0.8,0,1.2,0c5.5,0,10.6-1.9,14.5-5.1v5.2h2.9h2.9h2.9v-23.3C403,134.9,400.7,129.5,397.1,125.4z M379.7,155.4
		c-8,0-14.5-6.5-14.5-14.5c0-8,6.5-14.5,14.5-14.5s14.5,6.5,14.5,14.5C394.2,148.9,387.7,155.4,379.7,155.4z"/>
</g>
<g>
	<path fill="#35495E" d="M96.8,117.6v8.5h8.5v22.2c-5.8,4.7-13.2,7.4-21.1,7.4c-18.7,0-33.8-15.1-33.8-33.8S65.4,88,84.1,88
		c9.4,0,17.8,3.8,23.9,9.9l6-6c-7.6-7.7-18.2-12.4-29.9-12.4c-23.4,0-42.3,18.9-42.3,42.3s18.9,42.3,42.3,42.3
		c11.7,0,22.3-4.7,29.9-12.4v-34.1h-8.7H96.8z"/>
</g>
</svg>
