<?xml version="1.0" encoding="utf-8"?>
<!-- Generator: Adobe Illustrator 18.1.1, SVG Export Plug-In . SVG Version: 6.00 Build 0)  -->
<!DOCTYPE svg PUBLIC "-//W3C//DTD SVG 1.1//EN" "http://www.w3.org/Graphics/SVG/1.1/DTD/svg11.dtd">
<svg version="1.1" id="Layer_1" xmlns="http://www.w3.org/2000/svg" xmlns:xlink="http://www.w3.org/1999/xlink" x="0px" y="0px"
	 viewBox="-197.3 247.1 612 694.3" enable-background="new -197.3 247.1 612 694.3" xml:space="preserve">
<g>
	<g>
		<g>
			
				<linearGradient id="SVGID_1_" gradientUnits="userSpaceOnUse" x1="165.4153" y1="460.0072" x2="165.4152" y2="892.1677" gradientTransform="matrix(1.24 0 0 1.24 -96.5249 -244.0026)">
				<stop  offset="0" style="stop-color:#2ECC71"/>
				<stop  offset="1" style="stop-color:#24AE5F"/>
			</linearGradient>
			<path fill="url(#SVGID_1_)" d="M147.8,739.3c-79.9,0-145-65.1-145-145s65.1-145,145-145c40.1,0,76.4,16.2,102.6,42.4l86.9-86.9
				c-48.6-48.6-115.4-78.4-189.2-78.4c-148.4-0.1-268.2,120.1-268.2,267.9s119.8,268,268,268c73.8,0,140.9-30.1,189.2-78.4l-86.9-87
				C224.2,723.1,187.7,739.3,147.8,739.3z"/>
			<path fill="#35495E" d="M273.8,594.3h-14.6h-18.8h-25.7v33.4h25.7v77.9c-25.2,20.8-57.4,33.7-92.9,33.7c-79.9,0-145-65.1-145-145
				s65.1-145,145-145c40.1,0,76.4,16.2,102.6,42.4l23.7-23.7c-32.1-32.4-76.9-52.2-126.3-52.2c-98.5,0-178.5,79.9-178.5,178.5
				S49,772.8,147.5,772.8c49.4,0,93.8-20,126.3-52.2l0,0V594.3L273.8,594.3z"/>
		</g>
	</g>
</g>
</svg>
