<?xml version="1.0" encoding="utf-8"?>
<!-- Generator: Adobe Illustrator 18.1.1, SVG Export Plug-In . SVG Version: 6.00 Build 0)  -->
<!DOCTYPE svg PUBLIC "-//W3C//DTD SVG 1.1//EN" "http://www.w3.org/Graphics/SVG/1.1/DTD/svg11.dtd">
<svg version="1.1" id="Layer_1" xmlns="http://www.w3.org/2000/svg" xmlns:xlink="http://www.w3.org/1999/xlink" x="0px" y="0px"
	 viewBox="-197.3 198.3 819.2 929.4" enable-background="new -197.3 198.3 819.2 929.4" xml:space="preserve">
<g>
	<g>
		
			<linearGradient id="SVGID_1_" gradientUnits="userSpaceOnUse" x1="165.4321" y1="332.0547" x2="165.4319" y2="-100.1311" gradientTransform="matrix(1.6598 0 0 -1.6598 -62.4063 855.4416)">
			<stop  offset="0" style="stop-color:#2ECC71"/>
			<stop  offset="1" style="stop-color:#24AE5F"/>
		</linearGradient>
		<path fill="url(#SVGID_1_)" d="M264.7,857.1c-107,0-194.1-87.1-194.1-194.1s87.1-194.1,194.1-194.1c53.7,0,102.2,21.7,137.3,56.8
			l116.3-116.3c-65.1-65.1-154.5-105-253.3-105C66.4,304.3-94,465.1-94,663s160.4,358.7,358.7,358.7c98.8,0,188.6-40.3,253.3-105
			L401.7,800.3C366.9,835.4,318,857.1,264.7,857.1z"/>
		<path fill="#FFFFFF" d="M433.3,663h-19.6h-25.1h-34.4v44.7h34.4V812c-33.7,27.9-76.8,45.1-124.3,45.1
			c-107,0-194.1-87.1-194.1-194.1s87.1-194.1,194.1-194.1c53.7,0,102.2,21.7,137.3,56.8l31.7-31.7c-43-43.4-102.9-69.9-169-69.9
			c-131.8,0-238.9,107-238.9,238.9s107,238.9,238.9,238.9c66.1,0,125.6-26.8,169-69.9l0,0L433.3,663L433.3,663z"/>
	</g>
</g>
</svg>
