<?xml version="1.0" encoding="utf-8"?>
<!-- Generator: Adobe Illustrator 18.1.1, SVG Export Plug-In . SVG Version: 6.00 Build 0)  -->
<svg version="1.1" id="Layer_1" xmlns="http://www.w3.org/2000/svg" xmlns:xlink="http://www.w3.org/1999/xlink" x="0px" y="0px"
	 viewBox="0 0 1493.2 432" enable-background="new 0 0 1493.2 432" xml:space="preserve">
<path fill="#35495E" d="M437.3,255.7c3.4-8.4,8.1-16.1,13.8-23C438.6,222.3,422.6,216,405,216c-17,0-32.7,5.9-45,15.8V216h-27v144
	h27v-72c0-24.9,20.1-45,45-45c12.4,0,23.7,5,31.8,13.2L437.3,255.7z"/>
<linearGradient id="SVGID_1_" gradientUnits="userSpaceOnUse" x1="184.3675" y1="1.419721e-09" x2="184.3675" y2="432">
	<stop  offset="0" style="stop-color:#4FBA6F"/>
	<stop  offset="0.9386" style="stop-color:#29AE60"/>
	<stop  offset="1" style="stop-color:#24AE5F"/>
</linearGradient>
<path fill="url(#SVGID_1_)" d="M216,333c-64.6,0-117-52.4-117-117S151.4,99,216,99c32.3,0,61.6,13.1,82.7,34.3l70-70
	C329.6,24.2,275.6,0,216,0C96.7,0,0,96.7,0,216s96.7,216,216,216c59.6,0,113.6-24.2,152.7-63.3l-70-70
	C277.6,319.9,248.3,333,216,333z"/>
<path fill="#35495E" d="M718.9,237.1c-28.1-28.1-73.7-28.1-101.8,0c-28.1,28.1-28.1,73.7,0,101.8c28.1,28.1,73.7,28.1,101.8,0
	C733,324.9,740,306.4,740,288h-27c0,11.5-4.4,23-13.2,31.8c-15.4,15.4-39.2,17.3-56.6,5.7l82.1-82.1L718.9,237.1z M636.2,256.2
	c13-13,32.1-16.4,48.3-10.1l-58.3,58.3C619.8,288.3,623.1,269.2,636.2,256.2z"/>
<path fill="#35495E" d="M317.8,216H306h-15.2H270v27h20.8v62.9C270.5,322.8,244.5,333,216,333c-64.6,0-117-52.4-117-117
	S151.4,99,216,99c32.3,0,61.6,13.1,82.7,34.3l19.1-19.1C291.8,88.1,255.8,72,216,72c-79.5,0-144,64.5-144,144s64.5,144,144,144
	c39.8,0,75.8-16.1,101.8-42.2h0V216z"/>
<rect x="1356" y="72" fill="#35495E" width="27" height="288"/>
<path fill="#35495E" d="M825,216c-17,0-32.7,5.9-45,15.8V216h-27v144h27v-72c0-24.9,20.1-45,45-45s45,20.1,45,45v72h27v-72
	C897,248.2,864.8,216,825,216z"/>
<path fill="#35495E" d="M983.8,216c-17,0-32.7,5.9-45,15.8V72h-27v288h27v-15.8c12.3,9.9,28,15.8,45,15.8c39.8,0,72-32.2,72-72
	C1055.8,248.2,1023.5,216,983.8,216z M983.8,333c-24.9,0-45-20.1-45-45c0-24.9,20.1-45,45-45s45,20.1,45,45
	C1028.8,312.9,1008.6,333,983.8,333z"/>
<path fill="#35495E" d="M1294,333c-24.9,0-45-20.1-45-45c0-24.9,20.1-45,45-45c12.4,0,23.7,5,31.8,13.2l19.1-19.1
	c-13-13-31-21.1-50.9-21.1c-39.8,0-72,32.2-72,72c0,39.8,32.2,72,72,72c19.9,0,37.9-8.1,50.9-21.1l-19.1-19.1
	C1317.7,328,1306.4,333,1294,333z"/>
<polygon fill="#35495E" points="1493.2,216 1455,216 1383.1,288 1383,288 1383,288 1383,288 1383.1,288 1455,360 1493.2,360 
	1421.2,288 "/>
<g>
	<path fill="#35495E" d="M567.9,237.1c-28.1-28.1-73.7-28.1-101.8,0s-28.1,73.7,0,101.8c28.1,28.1,73.7,28.1,101.8,0
		C582,324.9,589,306.4,589,288h-27c0,11.5-4.4,23-13.2,31.8c-15.4,15.4-39.2,17.3-56.6,5.7l82.1-82.1L567.9,237.1z M485.2,256.2
		c13-13,32.1-16.4,48.3-10.1l-58.3,58.3C468.8,288.3,472.1,269.2,485.2,256.2z"/>
</g>
<path fill="#35495E" d="M1192.2,240.4L1192.2,240.4c-4.9-5.6-10.7-10.4-17.2-14.3c0,0-0.1,0-0.1-0.1c-1-0.6-2-1.2-3.1-1.7
	c-0.2-0.1-0.4-0.2-0.6-0.3c-0.9-0.5-1.8-0.9-2.7-1.3c-0.3-0.1-0.6-0.3-0.9-0.4c-0.8-0.4-1.6-0.7-2.5-1.1c-0.3-0.1-0.7-0.3-1.1-0.4
	c-0.8-0.3-1.6-0.6-2.4-0.9c-0.4-0.1-0.8-0.3-1.2-0.4c-0.8-0.3-1.5-0.5-2.3-0.7c-0.4-0.1-0.9-0.3-1.3-0.4c-0.8-0.2-1.5-0.4-2.3-0.6
	c-0.5-0.1-0.9-0.2-1.4-0.3c-0.8-0.2-1.5-0.3-2.3-0.4c-0.5-0.1-0.9-0.2-1.4-0.3c-0.8-0.1-1.6-0.2-2.4-0.3c-0.5-0.1-0.9-0.1-1.4-0.2
	c-0.9-0.1-1.7-0.2-2.6-0.2c-0.4,0-0.8-0.1-1.2-0.1c-1.3-0.1-2.6-0.1-3.9-0.1c-1.2,0-2.5,0-3.7,0.1c-12.3,0.6-23.7,4.3-33.6,10.3
	c-1,0.6-2,1.2-2.9,1.9c-6.7,4.5-12.6,10.2-17.4,16.6c-0.7,0.9-1.4,1.9-2,2.8c-1.3,1.9-2.5,3.9-3.6,5.9c-0.6,1-1.1,2.1-1.6,3.1
	c-2,4.2-3.6,8.6-4.8,13.2c-1.5,5.8-2.3,11.8-2.3,18c0,2.5,0.1,4.9,0.4,7.4c0.2,2.4,0.6,4.8,1.1,7.1c1.2,5.9,3.1,11.5,5.6,16.7
	c0.5,1,1,2.1,1.6,3.1c11.6,21.4,33.8,36.3,59.6,37.6c1.2,0.1,2.5,0.1,3.7,0.1c17,0,32.7-5.9,45-15.8V360h9h9h9v-72
	C1210.2,269.7,1203.4,253.1,1192.2,240.4z M1138.2,333c-24.9,0-45-20.1-45-45c0-24.9,20.1-45,45-45s45,20.1,45,45
	C1183.2,312.9,1163.1,333,1138.2,333z"/>
</svg>
