<?xml version="1.0" encoding="utf-8"?>
<!-- Generator: Adobe Illustrator 18.1.1, SVG Export Plug-In . SVG Version: 6.00 Build 0)  -->
<!DOCTYPE svg PUBLIC "-//W3C//DTD SVG 1.1//EN" "http://www.w3.org/Graphics/SVG/1.1/DTD/svg11.dtd">
<svg version="1.1" id="Layer_1" xmlns="http://www.w3.org/2000/svg" xmlns:xlink="http://www.w3.org/1999/xlink" x="0px" y="0px"
	 viewBox="54 292.8 720 208.3" enable-background="new 54 292.8 720 208.3" xml:space="preserve">
<path fill="#FFFFFF" d="M264.9,416.1c1.6-4.1,3.9-7.8,6.7-11.1c-6-5-13.7-8.1-22.2-8.1c-8.2,0-15.8,2.8-21.7,7.6V397h-13v69.4h13
	v-34.7c0-12,9.7-21.7,21.7-21.7c6,0,11.4,2.4,15.3,6.4L264.9,416.1z"/>
<linearGradient id="SVGID_1_" gradientUnits="userSpaceOnUse" x1="254.4779" y1="475.7096" x2="254.4778" y2="907.6964" gradientTransform="matrix(0.4822 0 0 0.4822 20.1813 63.4608)">
	<stop  offset="0" style="stop-color:#4FBA6F"/>
	<stop  offset="0.9386" style="stop-color:#29AE60"/>
	<stop  offset="1" style="stop-color:#24AE5F"/>
</linearGradient>
<path fill="url(#SVGID_1_)" d="M158.2,453.4c-31.1,0-56.4-25.3-56.4-56.4s25.3-56.4,56.4-56.4c15.6,0,29.7,6.3,39.9,16.5l33.8-33.8
	c-18.9-18.9-44.9-30.5-73.6-30.5C100.6,292.8,54,339.5,54,397c0,57.5,46.6,104.2,104.2,104.2c28.7,0,54.8-11.7,73.6-30.5L198,436.9
	C187.9,447.1,173.7,453.4,158.2,453.4z"/>
<path fill="#FFFFFF" d="M400.6,407.2c-13.5-13.5-35.5-13.5-49.1,0c-13.5,13.5-13.5,35.5,0,49.1c13.5,13.5,35.5,13.5,49.1,0
	c6.8-6.8,10.2-15.7,10.2-24.5h-13c0,5.5-2.1,11.1-6.4,15.3c-7.4,7.4-18.9,8.3-27.3,2.7l39.6-39.6L400.6,407.2z M360.8,416.4
	c6.3-6.3,15.5-7.9,23.3-4.9l-28.1,28.1C352.9,431.9,354.5,422.7,360.8,416.4z"/>
<path fill="#FFFFFF" d="M207.2,397h-5.7h-7.3h-10v13h10v30.3c-9.8,8.1-22.3,13.1-36.1,13.1c-31.1,0-56.4-25.3-56.4-56.4
	s25.3-56.4,56.4-56.4c15.6,0,29.7,6.3,39.9,16.5l9.2-9.2c-12.5-12.6-29.9-20.3-49.1-20.3c-38.3,0-69.4,31.1-69.4,69.4
	s31.1,69.4,69.4,69.4c19.2,0,36.5-7.8,49.1-20.3l0,0L207.2,397L207.2,397z"/>
<rect x="707.8" y="327.6" fill="#FFFFFF" width="13" height="138.9"/>
<path fill="#FFFFFF" d="M451.8,397c-8.2,0-15.8,2.8-21.7,7.6V397h-13v69.4h13v-34.7c0-12,9.7-21.7,21.7-21.7
	c12,0,21.7,9.7,21.7,21.7v34.7h13v-34.7C486.5,412.5,471,397,451.8,397z"/>
<path fill="#FFFFFF" d="M528.4,397c-8.2,0-15.8,2.8-21.7,7.6v-77.1h-13v138.9h13v-7.6c5.9,4.8,13.5,7.6,21.7,7.6
	c19.2,0,34.7-15.5,34.7-34.7C563.1,412.5,547.5,397,528.4,397z M528.4,453.4c-12,0-21.7-9.7-21.7-21.7c0-12,9.7-21.7,21.7-21.7
	c12,0,21.7,9.7,21.7,21.7C550.1,443.7,540.3,453.4,528.4,453.4z"/>
<path fill="#FFFFFF" d="M677.9,453.4c-12,0-21.7-9.7-21.7-21.7c0-12,9.7-21.7,21.7-21.7c6,0,11.4,2.4,15.3,6.4l9.2-9.2
	c-6.3-6.3-14.9-10.2-24.5-10.2c-19.2,0-34.7,15.5-34.7,34.7c0,19.2,15.5,34.7,34.7,34.7c9.6,0,18.3-3.9,24.5-10.2l-9.2-9.2
	C689.4,451,683.9,453.4,677.9,453.4z"/>
<polygon fill="#FFFFFF" points="774,397 755.6,397 720.9,431.7 720.9,431.7 720.9,431.7 720.9,431.7 720.9,431.7 755.6,466.4 
	774,466.4 739.3,431.7 "/>
<g>
	<path fill="#FFFFFF" d="M327.8,407.2c-13.5-13.5-35.5-13.5-49.1,0c-13.5,13.5-13.5,35.5,0,49.1c13.5,13.5,35.5,13.5,49.1,0
		c6.8-6.8,10.2-15.7,10.2-24.5h-13c0,5.5-2.1,11.1-6.4,15.3c-7.4,7.4-18.9,8.3-27.3,2.7l39.6-39.6L327.8,407.2z M288,416.4
		c6.3-6.3,15.5-7.9,23.3-4.9l-28.1,28.1C280,431.9,281.6,422.7,288,416.4z"/>
</g>
<path fill="#FFFFFF" d="M628.9,408.8L628.9,408.8c-2.4-2.7-5.2-5-8.3-6.9c0,0,0,0,0,0c-0.5-0.3-1-0.6-1.5-0.8
	c-0.1,0-0.2-0.1-0.3-0.1c-0.4-0.2-0.9-0.4-1.3-0.6c-0.1,0-0.3-0.1-0.4-0.2c-0.4-0.2-0.8-0.3-1.2-0.5c-0.1,0-0.3-0.1-0.5-0.2
	c-0.4-0.1-0.8-0.3-1.2-0.4c-0.2,0-0.4-0.1-0.6-0.2c-0.4-0.1-0.7-0.2-1.1-0.3c-0.2,0-0.4-0.1-0.6-0.2c-0.4-0.1-0.7-0.2-1.1-0.3
	c-0.2,0-0.4-0.1-0.7-0.1c-0.4-0.1-0.7-0.1-1.1-0.2c-0.2,0-0.4-0.1-0.7-0.1c-0.4,0-0.8-0.1-1.2-0.1c-0.2,0-0.4,0-0.7-0.1
	c-0.4,0-0.8-0.1-1.3-0.1c-0.2,0-0.4,0-0.6,0c-0.6,0-1.3,0-1.9,0c-0.6,0-1.2,0-1.8,0c-5.9,0.3-11.4,2.1-16.2,5
	c-0.5,0.3-1,0.6-1.4,0.9c-3.2,2.2-6.1,4.9-8.4,8c-0.3,0.4-0.7,0.9-1,1.4c-0.6,0.9-1.2,1.9-1.7,2.8c-0.3,0.5-0.5,1-0.8,1.5
	c-1,2-1.7,4.1-2.3,6.4c-0.7,2.8-1.1,5.7-1.1,8.7c0,1.2,0,2.4,0.2,3.6c0.1,1.2,0.3,2.3,0.5,3.4c0.6,2.8,1.5,5.5,2.7,8.1
	c0.2,0.5,0.5,1,0.8,1.5c5.6,10.3,16.3,17.5,28.7,18.1c0.6,0,1.2,0,1.8,0c8.2,0,15.8-2.8,21.7-7.6v7.7h4.3h4.3h4.3v-34.7
	C637.5,422.9,634.3,414.9,628.9,408.8z M602.8,453.4c-12,0-21.7-9.7-21.7-21.7c0-12,9.7-21.7,21.7-21.7c12,0,21.7,9.7,21.7,21.7
	C624.5,443.7,614.8,453.4,602.8,453.4z"/>
</svg>
