<?xml version="1.0" encoding="utf-8"?>
<!-- Generator: Adobe Illustrator 18.1.1, SVG Export Plug-In . SVG Version: 6.00 Build 0)  -->
<!DOCTYPE svg PUBLIC "-//W3C//DTD SVG 1.1//EN" "http://www.w3.org/Graphics/SVG/1.1/DTD/svg11.dtd">
<svg version="1.1" id="Layer_1" xmlns="http://www.w3.org/2000/svg" xmlns:xlink="http://www.w3.org/1999/xlink" x="0px" y="0px"
	 viewBox="0 0 512 512" enable-background="new 0 0 512 512" xml:space="preserve">
<path d="M256,40.6c57.5,0,111.6,22.4,152.3,63.1s63.1,94.8,63.1,152.3S449,367.6,408.3,408.3s-94.8,63.1-152.3,63.1
	S144.4,449,103.7,408.3S40.6,313.5,40.6,256S63,144.4,103.7,103.7S198.5,40.6,256,40.6 M256,0C114.6,0,0,114.6,0,256
	s114.6,256,256,256s256-114.6,256-256S397.4,0,256,0L256,0z"/>
<circle cx="256" cy="128" r="36.6"/>
<circle cx="256" cy="256" r="36.6"/>
<circle cx="256" cy="384" r="36.6"/>
</svg>
