<?xml version="1.0" encoding="utf-8"?>
<!-- Generator: Adobe Illustrator 18.1.1, SVG Export Plug-In . SVG Version: 6.00 Build 0)  -->
<!DOCTYPE svg PUBLIC "-//W3C//DTD SVG 1.1//EN" "http://www.w3.org/Graphics/SVG/1.1/DTD/svg11.dtd">
<svg version="1.1" id="Layer_1" xmlns="http://www.w3.org/2000/svg" xmlns:xlink="http://www.w3.org/1999/xlink" x="0px" y="0px"
	 viewBox="0 0 512 512" enable-background="new 0 0 512 512" xml:space="preserve">
<path d="M416.9,18.7l-29.5,29.5l9.8,9.8l46-46C434.2,9.4,424.1,11.6,416.9,18.7z"/>
<path d="M493.3,57.7l-35.1-35.1L410,70.8l53.8,53.8l29.5-29.5C503.6,84.7,503.6,68,493.3,57.7z"/>
<rect x="422.3" y="69.4" transform="matrix(-0.7071 0.7071 -0.7071 -0.7071 805.0834 -118.5831)" width="9.6" height="76.1"/>
<rect x="377.7" y="56" transform="matrix(0.7071 -0.7071 0.7071 0.7071 67.571 288.9287)" width="9.6" height="13.9"/>
<rect x="365" y="68.9" transform="matrix(0.7071 -0.7071 0.7071 0.7071 54.5819 283.5485)" width="9.1" height="13.9"/>
<rect x="409.5" y="82.4" transform="matrix(-0.7071 0.7071 -0.7071 -0.7071 792.0943 -87.2247)" width="9.1" height="76.1"/>
<rect x="58" y="235.5" transform="matrix(-0.7071 0.7071 -0.7071 -0.7071 638.9703 282.4493)" width="406" height="76.1"/>
<rect x="13.5" y="222.1" transform="matrix(0.7071 -0.7071 0.7071 0.7071 -98.5421 220.1224)" width="406" height="13.9"/>
<rect x="378.2" y="76.3" transform="matrix(-0.7071 -0.7071 0.7071 -0.7071 603.9734 411.6779)" width="18" height="9"/>
<rect x="391.4" y="63.1" transform="matrix(-0.7071 -0.7071 0.7071 -0.7071 635.7405 398.5196)" width="18" height="9"/>
<rect x="365.4" y="89.1" transform="matrix(-0.7071 -0.7071 0.7071 -0.7071 573.0236 424.4978)" width="18" height="9"/>
<g>
	<polygon points="28.7,466.8 71.3,383.7 61.6,374 25.8,463.8 	"/>
	<polygon points="22.1,472.9 9.9,503.4 24.4,475.2 	"/>
</g>
<g>
	<polygon points="49.1,487.2 138,450.4 84.2,396.6 32.7,470.7 	"/>
	<polygon points="27.4,478.2 9.9,503.4 40.1,490.9 	"/>
</g>
</svg>
