<?xml version="1.0" encoding="utf-8"?>
<!-- Generator: Adobe Illustrator 18.1.1, SVG Export Plug-In . SVG Version: 6.00 Build 0)  -->
<!DOCTYPE svg PUBLIC "-//W3C//DTD SVG 1.1//EN" "http://www.w3.org/Graphics/SVG/1.1/DTD/svg11.dtd">
<svg version="1.1" id="Layer_1" xmlns="http://www.w3.org/2000/svg" xmlns:xlink="http://www.w3.org/1999/xlink" x="0px" y="0px"
	 viewBox="0 0 512 512" enable-background="new 0 0 512 512" xml:space="preserve">
<path id="Twitter__x28_alt_x29__2_" d="M454.4,236.4c28.8-2.4,48.3-15.4,55.8-33.2c-10.4,6.4-42.6,13.3-60.4,6.7
	c-0.9-4.2-1.8-8.2-2.8-11.8c-13.6-49.8-60-89.9-108.7-85.1c3.9-1.6,7.9-3.1,11.9-4.4c5.4-1.9,36.8-7,31.8-18.1
	c-4.2-9.8-42.6,7.4-49.8,9.6c9.5-3.6,25.3-9.8,27-20.7c-14.6,2-29,8.9-40.1,19c4-4.3,7.1-9.6,7.7-15.2
	c-39,24.9-61.8,75.1-80.2,123.8c-14.5-14-27.3-25.1-38.8-31.2C175.6,158.5,137,140.5,76.4,118c-1.9,20.1,9.9,46.7,43.8,64.4
	c-7.3-1-20.8,1.2-31.5,3.8c4.4,23,18.7,41.9,57.4,51c-17.7,1.2-26.8,5.2-35.1,13.9c8.1,16,27.7,34.8,63.1,30.9
	c-39.3,17-16,48.3,16,43.7C135.5,382.1,49.4,377.9,0,330.8c129,175.8,409.6,104,451.3-65.4c31.3,0.3,49.8-10.9,61.2-23.1
	C494.5,245.4,468.3,242.2,454.4,236.4z"/>
</svg>
